<svg width="3135" height="671" viewBox="0 0 3135 671" fill="none" xmlns="http://www.w3.org/2000/svg">
<g clip-path="url(#clip0_705_109)">
<mask id="path-1-inside-1_705_109" fill="white">
<path d="M26 384.5C26 241.182 142.182 125 285.5 125C428.818 125 545 241.182 545 384.5C545 527.818 428.818 644 285.5 644H58C40.3269 644 26 629.673 26 612V384.5Z"/>
</mask>
<path d="M26 384.5C26 241.182 142.182 125 285.5 125C428.818 125 545 241.182 545 384.5C545 527.818 428.818 644 285.5 644H58C40.3269 644 26 629.673 26 612V384.5Z" stroke="#333333" stroke-width="86" mask="url(#path-1-inside-1_705_109)"/>
<mask id="mask0_705_109" style="mask-type:alpha" maskUnits="userSpaceOnUse" x="115" y="30" width="519" height="519">
<path d="M634 289.5C634 146.182 517.818 30 374.5 30C231.182 30 115 146.182 115 289.5C115 432.818 231.182 549 374.5 549H602C619.673 549 634 534.673 634 517V289.5Z" fill="#216CFF"/>
</mask>
<g mask="url(#mask0_705_109)">
<path d="M634 289.5C634 146.182 517.818 30 374.5 30C231.182 30 115 146.182 115 289.5C115 432.818 231.182 549 374.5 549H602C619.673 549 634 534.673 634 517V289.5Z" fill="url(#paint0_linear_705_109)"/>
<mask id="path-4-inside-2_705_109" fill="white">
<path d="M23 384.5C23 241.182 139.182 125 282.5 125C425.818 125 542 241.182 542 384.5C542 527.818 425.818 644 282.5 644H55C37.3269 644 23 629.673 23 612V384.5Z"/>
</mask>
<path d="M23 384.5C23 241.182 139.182 125 282.5 125C425.818 125 542 241.182 542 384.5C542 527.818 425.818 644 282.5 644H55C37.3269 644 23 629.673 23 612V384.5Z" stroke="white" stroke-width="86" mask="url(#path-4-inside-2_705_109)"/>
</g>
<path d="M801.527 375.879C801.527 344.441 807.815 316.887 820.39 293.216C833.335 269.175 851.088 250.683 873.649 237.738C896.21 224.793 922.1 218.32 951.319 218.32C988.305 218.32 1018.82 227.197 1042.86 244.95C1067.27 262.333 1083.73 287.298 1092.23 319.846H1024C1018.45 304.682 1009.57 292.846 997.366 284.34C985.161 275.833 969.812 271.579 951.319 271.579C925.429 271.579 904.717 280.826 889.183 299.319C874.019 317.442 866.437 342.962 866.437 375.879C866.437 408.796 874.019 434.502 889.183 452.994C904.717 471.487 925.429 480.734 951.319 480.734C987.935 480.734 1012.16 464.645 1024 432.467H1092.23C1083.36 463.535 1066.71 488.316 1042.3 506.809C1017.89 524.932 987.565 533.993 951.319 533.993C922.1 533.993 896.21 527.521 873.649 514.576C851.088 501.261 833.335 482.768 820.39 459.097C807.815 435.056 801.527 407.317 801.527 375.879ZM1313.38 218.32C1336.68 218.32 1357.39 223.313 1375.51 233.299C1394.01 243.285 1408.43 258.08 1418.79 277.682C1429.51 297.285 1434.88 320.955 1434.88 348.695V529H1372.18V358.126C1372.18 330.757 1365.34 309.86 1351.66 295.435C1337.97 280.641 1319.3 273.244 1295.62 273.244C1271.95 273.244 1253.09 280.641 1239.04 295.435C1225.35 309.86 1218.51 330.757 1218.51 358.126V529H1155.26V118.459H1218.51V258.819C1229.23 245.874 1242.73 235.888 1259.01 228.861C1275.65 221.834 1293.78 218.32 1313.38 218.32ZM1494.47 374.77C1494.47 344.071 1500.75 316.887 1513.33 293.216C1526.27 269.545 1543.66 251.237 1565.48 238.292C1587.67 224.977 1612.08 218.32 1638.71 218.32C1662.75 218.32 1683.65 223.128 1701.4 232.744C1719.53 241.991 1733.95 253.641 1744.68 267.696V223.313H1808.48V529H1744.68V483.508C1733.95 497.932 1719.34 509.952 1700.85 519.569C1682.35 529.185 1661.27 533.993 1637.6 533.993C1611.34 533.993 1587.3 527.336 1565.48 514.021C1543.66 500.336 1526.27 481.473 1513.33 457.433C1500.75 433.022 1494.47 405.468 1494.47 374.77ZM1744.68 375.879C1744.68 354.797 1740.24 336.489 1731.36 320.955C1722.85 305.421 1711.57 293.586 1697.52 285.449C1683.46 277.312 1668.3 273.244 1652.03 273.244C1635.75 273.244 1620.59 277.312 1606.53 285.449C1592.48 293.216 1581.01 304.867 1572.14 320.401C1563.63 335.565 1559.38 353.688 1559.38 374.77C1559.38 395.851 1563.63 414.344 1572.14 430.248C1581.01 446.152 1592.48 458.357 1606.53 466.864C1620.96 475.001 1636.12 479.069 1652.03 479.069C1668.3 479.069 1683.46 475.001 1697.52 466.864C1711.57 458.727 1722.85 446.892 1731.36 431.358C1740.24 415.454 1744.68 396.961 1744.68 375.879ZM1965.33 274.908V444.118C1965.33 455.583 1967.92 463.905 1973.1 469.083C1978.65 473.891 1987.89 476.295 2000.84 476.295H2039.67V529H1989.74C1961.26 529 1939.44 522.343 1924.28 509.028C1909.11 495.713 1901.53 474.076 1901.53 444.118V274.908H1865.47V223.313H1901.53V147.308H1965.33V223.313H2039.67V274.908H1965.33ZM2256.08 218.32C2279.38 218.32 2300.09 223.313 2318.22 233.299C2336.71 243.285 2351.13 258.08 2361.49 277.682C2372.21 297.285 2377.58 320.955 2377.58 348.695V529H2314.89V358.126C2314.89 330.757 2308.04 309.86 2294.36 295.435C2280.68 280.641 2262 273.244 2238.33 273.244C2214.66 273.244 2195.79 280.641 2181.74 295.435C2168.05 309.86 2161.21 330.757 2161.21 358.126V529H2097.97V118.459H2161.21V258.819C2171.94 245.874 2185.44 235.888 2201.71 228.861C2218.35 221.834 2236.48 218.32 2256.08 218.32ZM2735.09 223.313V529H2671.84V492.939C2661.86 505.514 2648.73 515.5 2632.45 522.897C2616.55 529.925 2599.54 533.438 2581.41 533.438C2557.37 533.438 2535.74 528.445 2516.5 518.459C2497.64 508.473 2482.66 493.679 2471.57 474.076C2460.84 454.474 2455.48 430.803 2455.48 403.064V223.313H2518.17V393.632C2518.17 421.002 2525.01 442.084 2538.7 456.878C2552.38 471.302 2571.06 478.515 2594.73 478.515C2618.4 478.515 2637.08 471.302 2650.76 456.878C2664.82 442.084 2671.84 421.002 2671.84 393.632V223.313H2735.09ZM2881.78 268.806C2892.51 254.011 2907.12 241.991 2925.61 232.744C2944.47 223.128 2965.37 218.32 2988.3 218.32C3015.3 218.32 3039.71 224.793 3061.53 237.738C3083.35 250.683 3100.55 269.175 3113.13 293.216C3125.7 316.887 3131.99 344.071 3131.99 374.77C3131.99 405.468 3125.7 433.022 3113.13 457.433C3100.55 481.473 3083.17 500.336 3060.98 514.021C3039.16 527.336 3014.93 533.993 2988.3 533.993C2964.63 533.993 2943.55 529.37 2925.06 520.123C2906.93 510.877 2892.51 499.042 2881.78 484.617V529H2818.54V118.459H2881.78V268.806ZM3067.64 374.77C3067.64 353.688 3063.2 335.565 3054.32 320.401C3045.81 304.867 3034.35 293.216 3019.92 285.449C3005.87 277.312 2990.71 273.244 2974.43 273.244C2958.53 273.244 2943.36 277.312 2928.94 285.449C2914.88 293.586 2903.42 305.421 2894.54 320.955C2886.04 336.489 2881.78 354.797 2881.78 375.879C2881.78 396.961 2886.04 415.454 2894.54 431.358C2903.42 446.892 2914.88 458.727 2928.94 466.864C2943.36 475.001 2958.53 479.069 2974.43 479.069C2990.71 479.069 3005.87 475.001 3019.92 466.864C3034.35 458.357 3045.81 446.152 3054.32 430.248C3063.2 414.344 3067.64 395.851 3067.64 374.77Z" fill="#333333"/>
</g>
<defs>
<linearGradient id="paint0_linear_705_109" x1="374.5" y1="30" x2="374.5" y2="549" gradientUnits="userSpaceOnUse">
<stop stop-color="#47A7F6"/>
<stop offset="1" stop-color="#69A2FF"/>
</linearGradient>
<clipPath id="clip0_705_109">
<rect width="3135" height="671" fill="white"/>
</clipPath>
</defs>
</svg>
