<svg version="1.2" xmlns="http://www.w3.org/2000/svg" viewBox="0 0 3000 2000" width="3000" height="2000">
	<title>na_january_18-ai</title>
	<style>
		.s0 { fill: #e3eefd } 
		.s1 { fill: #38385c } 
		.s2 { fill: #a4c4ff } 
		.s3 { fill: #a7bd37 } 
		.s4 { fill: #3e5409 } 
		.s5 { fill: #739bfd } 
		.s6 { opacity: .5;fill: #739bfd } 
		.s7 { opacity: .3;fill: #739bfd } 
		.s8 { fill: #1a1a35 } 
		.s9 { fill: #ff5c3d } 
		.s10 { fill: #ffffff } 
		.s11 { opacity: .4;fill: #df4930 } 
		.s12 { fill: #ffb6a6 } 
		.s13 { fill: #ff8370 } 
		.s14 { fill: #3875ff } 
	</style>
	<g id="_Artboards_">
	</g>
	<g id="Layer 1">
		<g id="&lt;Group&gt;">
			<path id="&lt;Path&gt;" class="s0" d="m256.8 1596.5h2431.4c-338.8-1188.6-59.6-1335-1407.9-985.9 0 0-398.3-70.7-398.3-70.7-76.8-13.6-153.1 26.4-185.6 97.3z"/>
			<path id="&lt;Path&gt;" class="s1" d="m2763.4 1600.3c-3.9-3.8-2545.6 7.4-2544.8-3.8-5.5-3.9 2568.9-14.5 2544.8 3.8z"/>
		</g>
		<g id="&lt;Group&gt;">
			<path id="&lt;Path&gt;" class="s2" d="m1212.6 430.3h-379.9c-13.8 0-25 11.2-25 25 3 222.7-46.4 149.4 276.9 161.6l79.1 59.5c4.1 3.1 10.1 0.1 10.1-5.1v-54.4c21.5-1.2 63.2 8.4 63.8-25 0 0 0-136.6 0-136.6 0-13.8-11.2-25-25-25z"/>
			<g id="&lt;Group&gt;">
				<path id="&lt;Path&gt;" class="s0" d="m1033.8 492.4h-178.6v-23.5h178.6z"/>
				<path id="&lt;Path&gt;" class="s0" d="m1033.8 575.7h-178.6v-23.5h178.6z"/>
				<path id="&lt;Path&gt;" class="s0" d="m1192.7 534h-178.5v-23.5h178.5z"/>
				<path id="&lt;Path&gt;" class="s0" d="m1114.4 492.4h-67.3v-23.5h67.3z"/>
				<path id="&lt;Path&gt;" class="s0" d="m1192.7 492.4h-67.3v-23.5h67.3z"/>
				<path id="&lt;Path&gt;" class="s0" d="m922.6 534h-67.4v-23.5h67.4z"/>
				<path id="&lt;Path&gt;" class="s0" d="m1000.9 534h-67.3v-23.5h67.3z"/>
			</g>
		</g>
		<path id="&lt;Path&gt;" class="s3" d="m800.2 1596.5c0 0-188 2.1-324.2-111.8 0 0 104.7-35.5 218.9 13.3 0 0-177.3-81.9-198.1-230.9 0 0 159.9 60.7 217.6 137.7 0 0-75.5-84.4-97.7-220.5 0 0 114 93.2 134.7 121.3 0 0-13.4-128.7 26.6-205.7z"/>
		<g id="&lt;Clip Group&gt;">
			<path id="&lt;Path&gt;" class="s4" d="m800.2 1596.5c0 0-188 2.1-324.2-111.8 0 0 104.7-35.5 218.9 13.3 0 0-177.3-81.9-198.1-230.9 0 0 159.9 60.7 217.6 137.7 0 0-75.5-84.4-97.7-220.5 0 0 114 93.2 134.7 121.3 0 0-13.4-128.7 26.6-205.7z"/>
			<path id="&lt;Path&gt;" class="s4" d="m800.2 1442.4c-0.3 0-0.7-0.1-1-0.3-17.6-16.4-51.9-55.7-115.1-150.1-38-59.3-70.4-104.6-68.2-109 4.9 0.1 30.3 49.6 70.6 107.4 48.4 77.1 95.6 125.8 113.7 152z"/>
			<path id="&lt;Path&gt;" class="s4" d="m823.8 1574.6c-34.2-19.3-346.4-85.3-349.2-90.2 3.5-3.5 78.7 17.6 163.3 36.5 110 28.9 179 40.3 185.9 53.7z"/>
		</g>
		<path id="&lt;Path&gt;" class="s3" d="m2183.5 1602.3c0 0 240.6-72.3 301.8-158.7 0 0-142.4 1-217.3 28.4 0 0 151.9-73.8 182.5-179.2 0 0-118.1 28.4-166.6 74.8 0 0 95.9-121.7 94.9-205.8 0 0-131.8 74-139.2 123.6 0 0-8.1-180.3-45-207.7z"/>
		<g id="&lt;Clip Group&gt;">
			<path id="&lt;Path&gt;" class="s4" d="m2183.5 1602.3c0 0 240.6-72.3 301.8-158.7 0 0-142.4 1-217.3 28.4 0 0 151.9-73.8 182.5-179.2 0 0-118.1 28.4-166.6 74.8 0 0 95.9-121.7 94.9-205.8 0 0-131.8 74-139.2 123.6 0 0-8.1-180.3-45-207.7z"/>
			<path id="&lt;Path&gt;" class="s4" d="m2171 1464.1c22.8-30.6 253.7-159.5 280.8-172-1.2 5.1-230.7 129.9-280.8 172z"/>
			<path id="&lt;Path&gt;" class="s4" d="m2177.9 1399.8c55.8-40.6 198.8-237.6 201.7-239.2-9.8 27.1-177.1 236-201.7 239.2z"/>
		</g>
		<g id="&lt;Group&gt;">
			<g id="&lt;Group&gt;">
				<path id="&lt;Path&gt;" class="s5" d="m693.7 1776.7c1.5 16.7-6.5 51.5 12.9 60.8 13.1 10.4 1537.9-0.1 1552.7 3.6 7.7-0.1 15.2-3.1 20.8-8.5 12.8-10.3 8.4-34.8 9.1-49z"/>
				<g id="&lt;Group&gt;">
					<path id="&lt;Path&gt;" class="s1" d="m2159.2 1610.9h-1336.6c-27.9 0-50.6-22.7-50.6-50.6v-767.7c0-28 22.7-50.7 50.6-50.7h1336.6c28 0 50.6 22.7 50.6 50.7v767.7c0 27.9-22.6 50.6-50.6 50.6z"/>
					<path id="&lt;Path&gt;" class="s2" d="m2142.4 1550h-1303v-747.2h1303z"/>
					<g id="&lt;Group&gt;">
						<path id="&lt;Path&gt;" class="s2" d="m2262.4 1808.9h-1538.9c-23.9 0-37.2-27.7-22.3-46.4l121.4-151.6h1336.6l125.2 151.2c15.4 18.6 2.1 46.8-22 46.8z"/>
						<path id="&lt;Path&gt;" class="s5" d="m822.6 1610.9h1336.6l-1401 80.5z"/>
					</g>
				</g>
				<path id="&lt;Path&gt;" class="s6" d="m1163.7 802.8l-324.3 472.2v275h258.5l514-747.2z"/>
				<path id="&lt;Path&gt;" class="s7" d="m1845.5 802.8l-497.7 747.2h369.7l424.9-639v-108.2z"/>
				<path id="&lt;Path&gt;" class="s5" d="m2142.4 802.8l-1252.6 53.3-50.4 670.9v-724.2z"/>
			</g>
			<g id="&lt;Group&gt;">
				<path id="&lt;Path&gt;" class="s8" d="m1260.9 1431.8l-23.3 118.2h452.8c0 0 28.8-60 20-118.2z"/>
				<g id="&lt;Group&gt;">
					<path id="&lt;Path&gt;" class="s8" d="m1591.8 542.1c49.2 46 58.3 119.9 74.1 183.3 13.5 40.5 54.6 67.7 61.7 110.7 7.5 45.5-39.5 89.4-75.2 109.5-51.2 25.4-147.9 20.3-206.5 20-137.5-8-240.7-181.7-166.2-302.3 20.4-34.2 36.2-69.9 55.4-104.5 26.4-51.2 64.3-63.6 119-65.6 56.5-6.8 103.4 13.6 137.7 48.9z"/>
					<g id="&lt;Group&gt;">
						<g id="&lt;Group&gt;">
							<path id="&lt;Path&gt;" class="s9" d="m1946.3 976.5c-12-2.8-337-152.6-337.8-144.3 0 0-213.1 10.3-213.1 10.3-4.9-0.2-16.2 1.8-16 2.1-5.8 0.8-295.3 39-295.3 39l10.2 215.6 197.5-7.7-90.5 340.3c116.3 110.1 476.5 27.2 557.9 0l-64.1-345.7 142.6 70.5z"/>
							<g id="&lt;Clip Group&gt;">
								<path id="&lt;Path&gt;" class="s10" d="m1946.3 976.5c-12-2.8-337-152.6-337.8-144.3 0 0-213.1 10.3-213.1 10.3-4.9-0.2-16.2 1.8-16 2.1-5.8 0.8-295.3 39-295.3 39l10.2 215.6 197.5-7.7-90.5 340.3c116.3 110.1 476.5 27.2 557.9 0l-64.1-345.7 142.6 70.5z"/>
								<path id="&lt;Path&gt;" class="s10" d="m1262.2 1135.3c196.1 75.3 250.2 80 449.9 7.9l11.5 52.8c-203.9 74.6-283.6 93.2-471.5 0z"/>
								<path id="&lt;Path&gt;" class="s11" d="m1075.8 1032.6l246.8-54.2-34.1 125.5-209.4 10.6z"/>
								<path id="&lt;Path&gt;" class="s11" d="m1695.1 1086.1l-18.4-89.4 198.4 120.8-33.4 58.9z"/>
							</g>
							<path id="&lt;Path&gt;" class="s11" d="m1291.8 1091.5c0 0 48.4 172.8 103.6 214.3 55.1 41.6 296.6 142.9 296.6 142.9-78.8 24.6-377.4 83.7-490.7-16.9z"/>
						</g>
						<g id="&lt;Group&gt;">
							<path id="&lt;Path&gt;" class="s12" d="m1349.5 658.3c29.7-279.8 303.2-99 183.7 97.9l21.3 108.8-106.2 18.6-6.6-83c-52-9.3-92.2-69.5-92.2-142.3z"/>
							<g id="&lt;Clip Group&gt;">
								<path id="&lt;Path&gt;" class="s13" d="m1349.5 658.3c29.7-279.8 303.2-99 183.7 97.9l21.3 108.8-106.2 18.6-6.6-83c-52-9.3-92.2-69.5-92.2-142.3z"/>
								<path id="&lt;Path&gt;" class="s10" d="m1416.6 747.2c0 0 35.4-2.1 48-21 0 0 0.5 41.2-20.3 44.4-19.9 3.1-27.7-23.4-27.7-23.4z"/>
								<path id="&lt;Path&gt;" class="s13" d="m1345.9 685.8c44-16.9 115.7-24.5 122.7-99.3 0 0 24.8 60.4 93.2 71.8 68.4 11.3 0 0 0 0l-70.4-138-71.3-1.6-85.2 92.4z"/>
							</g>
							<path id="&lt;Path&gt;" class="s12" d="m1395.4 842.5c33.9 108.6 185.1 85.2 210.9-10.2z"/>
						</g>
						<g id="&lt;Group&gt;">
							<path id="&lt;Path&gt;" class="s12" d="m1086 915.1l-373.2-190-37.7 64.8 302.4 248.5c33 25.2 75 32.7 115.7 30.5z"/>
							<g id="&lt;Clip Group&gt;">
								<path id="&lt;Path&gt;" class="s13" d="m1086 915.1l-373.2-190-37.7 64.8 302.4 248.5c33 25.2 75 32.7 115.7 30.5z"/>
							</g>
							<g id="&lt;Group&gt;">
								<path id="&lt;Path&gt;" class="s2" d="m713.9 552.1l-111.5 93-136-50c-9.5 0.8 19.5 127.1 18.7 133 1.6 9.1 10.3 15.2 19.4 13.6l223.1-39.5c9.1-1.6 15.2-10.3 13.6-19.5-2.9-6.1-18.7-130.2-27.3-130.6z"/>
								<path id="&lt;Path&gt;" class="s5" d="m713.9 552.1c-3.7-3-8.5-4.4-13.6-3.5l-223 39.4c-4.6 0.9-8.4 3.5-10.9 7.1l136 50z"/>
							</g>
							<path id="&lt;Path&gt;" class="s12" d="m724 730.8c0 0-36-83.6-41.5-85.7-13.6-5.1-4.4 66.3-4.4 66.3 0 0-109.1 18.8-107.6 18.6 1.4-0.3 104.6 59.9 104.6 59.9z"/>
							<g id="&lt;Clip Group&gt;">
								<path id="&lt;Path&gt;" class="s13" d="m724 730.8c0 0-36-83.6-41.5-85.7-13.6-5.1-4.4 66.3-4.4 66.3 0 0-109.1 18.8-107.6 18.6 1.4-0.3 104.6 59.9 104.6 59.9z"/>
							</g>
						</g>
						<g id="&lt;Group&gt;">
							<path id="&lt;Path&gt;" class="s12" d="m1924.1 1013.4l388.9-139.4 7 75.8c-49.2 23-327.6 223.2-381.3 213.6-31.4 2.9-63.6-9.5-92.1-21.6z"/>
							<g id="&lt;Clip Group&gt;">
								<path id="&lt;Path&gt;" class="s13" d="m1924.1 1013.4l388.9-139.4 7 75.8c-49.2 23-327.6 223.2-381.3 213.6-31.4 2.9-63.6-9.5-92.1-21.6z"/>
							</g>
							<path id="&lt;Path&gt;" class="s2" d="m2529.9 997.3h-198.4c-13 0-23.6-10.5-23.6-23.6v-180.2c0-13 10.6-23.6 23.6-23.6h198.4c13 0 23.6 10.6 23.6 23.6v180.2c0 13.1-10.6 23.6-23.6 23.6z"/>
							<path id="&lt;Path&gt;" class="s5" d="m2382.1 959.5c33 7.3 55.6-25.9 76.6-44.9 17.3-18.1 51.6-41.4 46.9-70.5-0.2-13.2-4.9-26.1-14.3-35.6-14.7-18.9-28.5 7.3-39.7 15.8-4.7 4.6-4.9 12.1-0.3 16.9l22.6 23.2c-16.7 16.2-49.7 48.2-66.4 64.4l-22.6-23.2c-4.5-4.7-12.1-4.8-16.8-0.3-6.6 8.5-32.7 23.3-20.1 36.1 8.8 10 20.7 16.9 34.1 18.1z"/>
							<path id="&lt;Path&gt;" class="s12" d="m2307.9 875.8c0 0 91.3 22.1 89 26.3-2.3 4.2-10.1 11.1-20.9 12.2-10.6 1.1-57.1 2.6-74.6 3.1z"/>
							<path id="&lt;Path&gt;" class="s13" d="m2307.9 917.2c0 0-18.4 20-15 49.3l15-9.2z"/>
						</g>
					</g>
					<path id="&lt;Path&gt;" class="s8" d="m1472.5 514.7c0 0-1.2 104.5-68.4 121.2l19.9-47.3c0 0-27.9 53.3-89.1 51.9 4.9-70.6 41.5-150.7 137.6-125.8z"/>
					<path id="&lt;Path&gt;" class="s8" d="m1472.5 514.7c-10.2 61.4 44.8 115.7 89.3 143.6 44.1-72.7-13.8-135.9-89.3-143.6z"/>
				</g>
			</g>
		</g>
		<g id="&lt;Group&gt;">
			<g id="&lt;Group&gt;">
				<path id="&lt;Path&gt;" class="s2" d="m1959.5 547.2l213.6-92.7-146.1 141.7z"/>
				<path id="&lt;Path&gt;" class="s10" d="m2027 596.2l37.1 60.2 109-201.9z"/>
				<path id="&lt;Path&gt;" class="s2" d="m2173.1 454.5l-102.2 159 69.1 34.6z"/>
			</g>
			<path id="&lt;Compound Path&gt;" class="s10" d="m1670.2 1509.6l-0.1-4.9c3.8 0.9 13.3-2.3 14.1 2.4-0.7 4.7-10.4 1.6-14 2.5zm-11.7-0.1c-3.8-0.9-13.4 2-14.1-2.7 0.9-4.7 10.3-1.3 14.1-2.1 3.1 0 3.1 4.9 0 4.8zm34.9-0.2c-1.3 0-2.4-1-2.4-2.4 0.7-4.7 10.4-1.8 14-2.8 3.1-0.1 3.3 4.8 0.2 4.9-3.9 0.1-7.8 0.2-11.8 0.3zm-58.2-0.4c-3.1-0.6-7.8 1.1-8-2.9 0.7-3.8 5-1.7 8.1-2 3.1 0.1 3 4.9-0.1 4.9zm81.5-0.5c-3 0.1-3.2-4.7-0.1-4.8 3.8 0.7 13.1-3 14.2 1.6-0.5 4.8-10.3 2.2-14.1 3.2zm23.3-1.5c-1.2 0-2.3-0.9-2.4-2.2 0.4-4.7 10.4-2.4 13.8-3.6 3.1-0.4 3.6 4.5 0.5 4.8-3.9 0.4-7.9 0.7-11.9 1zm23.2-2.3c-1.2 0-2.3-0.9-2.4-2.1 0.2-4.7 10.3-2.8 13.6-4.2 3.1-0.5 3.8 4.4 0.7 4.8-3.8 0.5-7.9 1.1-11.9 1.5zm23.1-3.3c-2.9 0.1-3.3-4.4-0.4-4.8 3.9 0.2 12.5-4.7 14.2-0.2 0.2 4.8-10.2 3.6-13.8 5zm22.8-4.7c-2.8 0.1-3.3-4.2-0.6-4.8 4.1 0 12-5.6 14.2-1.4 0.8 4.6-10.1 4.8-13.6 6.2zm22.3-6.8c-2.6 0.1-3.4-3.9-0.9-4.7 4.2-0.6 10.9-7.2 13.7-3.5 1.6 4.4-9.4 6.6-12.8 8.2zm20.7-10.6c-7.8-2.6 5.7-8.6 6.8-11.6 2.1-2.4 5.8 0.8 3.7 3.1-2.8 2.8-6.2 7-10.5 8.5zm14.6-17.5c-5.3-1.1 0.1-7.7-1-11.3-1.1-4.2 3.1-7.4 4.8-2.7-0.2 4.3 0.9 12.3-3.8 14zm-1.5-22.6c-4.1-1.4-4.3-7.8-7.6-11.3-1.8-2.6 2.3-5.3 4-2.7 1.7 3.8 9.8 12.3 3.6 14zm-12.5-19.5c-4-1.6-6.1-6.8-9.5-9.5-0.9-1-0.9-2.5 0.1-3.4 4.2-2.7 8.3 6.6 11.2 8.9 1.3 1.5 0.1 4-1.8 4zm-16.1-16.9c-3.9-1.5-6.7-5.7-10.4-8-1-0.8-1.2-2.4-0.4-3.4 3.8-3.2 9.2 5.4 12.5 7.2 1.6 1.4 0.5 4.3-1.7 4.2zm-18.3-14.4c-3.9-1.4-7.2-4.7-11-6.6-1.2-0.7-1.5-2.2-0.8-3.3 3.3-3.7 9.7 4.1 13.2 5.5 2 1.3 0.9 4.5-1.4 4.4zm-19.9-11.9c-2.6-1.4-14.7-5-12.7-8.6 2.9-4 10.2 3.1 13.8 4 2.2 1.1 1.3 4.7-1.1 4.6zm-21.2-9.7c-2.2-0.4-5.2-1.9-7.4-2.6-2.2-1.1-6.8-1.3-5.8-4.7 2-3.9 7.9 1 11 1.4 3.6 0.7 7.4 4.4 2.2 5.9zm-21.9-7.7c-3.2-1.6-14.4-2.1-13.5-6.5 2.3-4.3 10.4 1.4 14.2 1.7 2.6 0.8 1.9 4.9-0.7 4.8zm-22.4-6.4c-3.3-1.5-14.1-1-13.7-5.6 1.7-4.5 10.6 0.8 14.3 0.8 2.7 0.6 2.1 4.9-0.6 4.8zm-406-3.6c-1.3 0-2.4-1.1-2.4-2.5 0.7-4.7 10.4-1.5 14-2.4 3.2-0.1 3.2 4.8 0.1 4.8q-5.9 0.1-11.7 0.1zm-11.6-0.1q-5.9 0-11.7-0.1c-1.4 0-2.4-1.1-2.4-2.5 0.8-4.6 10.4-1.4 14.1-2.2 3.1 0 3.1 4.9 0 4.8zm34.9-0.1c-3.1 0-3.2-4.9-0.1-4.9 3.7 0.9 13.3-2.4 14.1 2.2-0.6 4.8-10.4 1.8-14 2.7zm-58.2-0.2c-3.7-1-13.5 1.9-14.1-2.9 0.9-4.6 10.5-1.2 14.1-2 3.1 0 3.1 4.9 0 4.9zm81.5-0.3c-3.1 0.1-3.2-4.8-0.1-4.8 3.6 0.7 13.4-2.6 14.1 2-0.4 4.7-10.5 1.9-14 2.8zm-104.8-0.5c-3.6-1-13.5 1.6-14.1-3.1 1.1-4.7 10.5-1 14.2-1.8 3.1 0.1 3 4.9-0.1 4.9zm128-0.2c-3.1 0.1-3.2-4.7-0.1-4.8 3.8 0.8 12.9-2.9 14.2 1.8-0.6 4.8-10.5 2-14.1 3zm313.5-0.1c-3.4-1.4-14.1-0.2-13.9-4.9 1.5-4.5 10.7 0.3 14.3 0.1 2.9 0.5 2.4 4.9-0.4 4.8zm-290.2-0.9c-3.1 0-3.2-4.8-0.2-4.9 3.7 0.7 13.2-3 14.2 1.6-0.5 4.8-10.4 2.2-14 3.3zm-174.6-0.1c-3.6-1-13.6 1.4-14-3.4 1.1-4.6 10.5-0.8 14.2-1.4 3 0.1 2.9 4.9-0.2 4.8zm197.8-1.3c-1.3 0-2.3-1-2.4-2.3 0.5-4.7 10.3-2.2 13.9-3.3 3.1-0.2 3.4 4.7 0.3 4.9q-5.9 0.3-11.8 0.7zm-221-0.5c-3.6-1.1-13.7 1-14-3.8 1.3-4.5 10.5-0.5 14.2-1 3.1 0.2 2.8 4.9-0.2 4.8zm244.2-1c-3 0.1-3.2-4.7-0.1-4.8 0 0 11.6-0.8 11.6-0.8 1.3-0.1 2.5 0.9 2.6 2.2 0.1 1.4-0.9 2.5-2.3 2.6-0.1 0-11.6 0.8-11.8 0.8zm220.8 0c-3.5-1.4-13.7 0.5-13.9-4.3 1.3-4.6 10.6-0.2 14.2-0.5 3 0.3 2.6 4.8-0.3 4.8zm-488.1-1.4c-3.6-1.2-13.8 0.6-14-4.2 1.4-4.5 10.5-0.2 14.3-0.6 2.9 0.3 2.6 4.9-0.3 4.8zm290.6-0.1c-3.1 0-3.2-4.7-0.2-4.9 3.7 0.6 13.2-3.1 14.2 1.5-0.5 4.8-10.4 2.3-14 3.4zm174.4-1.3c-3.5-1.2-13.6 1.1-14-3.6 1.1-4.7 10.7-0.8 14.2-1.2 3 0.2 2.8 4.9-0.2 4.8zm-151.2-0.2c-3 0.1-3.2-4.7-0.1-4.8 3.6 0.6 13.1-3.1 14.1 1.6-0.5 4.7-10.4 2.1-14 3.2zm23.3-1.3c-3.1 0.1-3.2-4.7-0.2-4.8 3.7 0.7 13.2-2.9 14.2 1.8-0.6 4.7-10.4 2-14 3zm-360.2-0.1c-3.6-1.4-13.8 0.1-13.9-4.7 1.5-4.5 10.5 0.2 14.3-0.2 2.9 0.4 2.5 4.9-0.4 4.9zm464.9-0.2c-3.6-1.1-13.5 1.6-14.1-3.1 1-4.7 10.7-1.1 14.2-1.8 3.1 0.2 2.9 4.9-0.1 4.9zm-81.5-0.6c-3.1 0-3.2-4.8-0.1-4.9 3.7 0.7 13.3-2.7 14.2 2-0.7 4.8-10.4 1.9-14.1 2.9zm58.2-0.4c-3.6-1-13.3 2-14-2.7 0.8-4.7 10.5-1.4 14.1-2.2 3.1 0.1 3 4.9-0.1 4.9zm-34.9-0.2c-3.1 0.1-3.2-4.9 0-4.8 3.6 0.7 13.3-2.4 14.1 2.3-0.8 4.7-10.4 1.6-14.1 2.5zm-429.6-2.4c-3.4-1.4-14.2-0.5-13.9-5.1 1.7-4.5 10.5 0.5 14.3 0.3 2.8 0.4 2.4 4.8-0.4 4.8zm-22.9-4.6c-3.3-1.4-14.2-1-13.7-5.6 1.9-4.4 10.5 0.9 14.3 0.8 2.7 0.5 2.2 4.9-0.6 4.8zm-22.6-5.5c-3.3-1.4-14.2-1.5-13.5-6.1 2-4.3 10.3 1.3 14.1 1.4 2.7 0.6 2.2 4.8-0.6 4.7zm-22.4-6.3c-3.2-1.5-14.3-2.2-13.4-6.7 2.2-4.2 10.4 1.7 14.1 1.9 2.7 0.8 2 4.9-0.7 4.8zm-22.1-7.3c-3.1-1.5-14.5-3-13.2-7.4 2.4-4.1 10.3 2.3 14 2.7 2.6 0.8 1.8 4.8-0.8 4.7zm-21.7-8.4c-3-1.5-14.5-3.7-13-7.9 2.6-4 10.2 2.7 13.9 3.3 2.4 0.9 1.6 4.7-0.9 4.6zm-21.3-9.4c-2.9-1.4-14.6-4.7-12.7-8.6 3.1-3.8 9.9 3.2 13.7 4 2.3 1 1.5 4.7-1 4.6zm-20.8-10.5c-2.8-1.4-14.5-5.5-12.4-9.2 3.3-3.7 9.7 3.7 13.5 4.7 2.2 1.1 1.3 4.6-1.1 4.5zm-20.3-11.6c-2.8-1.3-14.2-6.7-11.7-10.2 3.5-3.3 9.1 4.4 13 5.8 2.1 1.1 1.1 4.5-1.3 4.4zm-19-13.3c-4.1-1.6-7.3-5.9-10.4-8.4-2.3-2.2 1.1-5.7 3.4-3.5 1.6 2.8 14.7 9.3 7 11.9zm-16.6-16.4c-4.2-1.6-6.2-7.7-8.5-10.9-1.5-2.8 2.8-5.1 4.3-2.3 0.4 3.4 11.1 11.4 4.2 13.2zm-10.5-20.5c-4.7-1.4-2.9-10.3-3-14.3 0.3-3.1 5.2-2.5 4.8 0.6-1.6 3.7 3.2 13.1-1.8 13.7zm2.7-22.7c-1.8 0.1-3-1.9-2.2-3.4 1.9-2.7 5.3-13.1 9.9-10.7 1 0.8 1.2 2.3 0.3 3.4-3.6 3.2-4 9.2-8 10.7zm14.1-18.3c-2.1 0.1-3.3-2.7-1.6-4.2 3.1-1.8 8.5-10.5 12.4-7.3 0.8 1.1 0.6 2.6-0.4 3.4-3.8 2.4-6.5 6.6-10.4 8.1zm18.3-14.4c-2.3 0.1-3.4-3.2-1.4-4.4 3.4-1.3 10-9.1 13.3-5.4 0.7 1.1 0.3 2.6-0.9 3.3-3.9 1.9-7.2 5.1-11 6.5zm20-11.8c-8.3-3.5 6.5-7.9 9.5-9.7 2.8-1.4 4.9 3.1 2 4.4-4 1.6-7.6 4.1-11.5 5.3zm21.2-9.7c-2.6 0.1-3.4-3.8-1-4.7 3.7-0.5 11.5-7 14.1-2.8 1.4 4.1-10.3 6-13.1 7.5zm21.8-8.1c-2.6 0.1-3.3-3.9-0.8-4.7 3.5-0.3 12.1-6.3 14.2-2 1 4.4-10.4 5.2-13.4 6.7zm22.2-6.9c-2.7 0.1-3.3-4-0.6-4.7 3.4-0.1 12.2-5.8 14.2-1.4 0.8 4.4-10.6 4.7-13.6 6.1zm22.5-6c-2.7 0-3.3-4.2-0.6-4.8 3.8-0.1 12.4-5.5 14.3-1.1 0.5 4.6-10.3 4.3-13.7 5.9zm22.6-5.6c-2.7 0.1-3.3-4.2-0.5-4.8 0 0 11.3-2.7 11.3-2.7 3-0.8 4.2 4 1.1 4.7 0 0-11.3 2.7-11.3 2.7q-0.3 0.1-0.6 0.1zm22.7-5.5c-2.8 0.1-3.3-4.2-0.6-4.8 3.7 0 12.4-5.4 14.3-1 0.5 4.6-10.4 4.3-13.7 5.8zm22.6-5.5c-2.8 0.1-3.3-4.2-0.5-4.7 3.7 0 12.4-5.3 14.2-0.8 0.5 4.6-10.3 4.1-13.7 5.5zm22.7-5.1c-2.8 0-3.3-4.3-0.5-4.8 3.7 0 12.5-5.1 14.3-0.7 0.4 4.7-10.4 4-13.8 5.5zm22.8-5c-2.8 0.1-3.3-4.2-0.5-4.8 3.7 0.1 12.6-4.9 14.3-0.5 0.3 4.7-10.4 3.9-13.8 5.3zm22.8-4.7c-2.8 0.1-3.3-4.3-0.5-4.8 3.8 0.2 12.6-4.8 14.3-0.3 0.3 4.6-10.4 3.7-13.8 5.1zm22.8-4.4c-2.8 0.1-3.2-4.4-0.4-4.8 3.7 0.1 12.7-4.7 14.3-0.2 0.3 4.6-10.5 3.6-13.9 5zm22.9-4.3c-1.1 0-2.1-0.8-2.3-2-0.1-4.7 10-3.3 13.4-4.8 3.1-0.6 3.9 4.3 0.8 4.8-3.9 0.6-7.9 1.4-11.9 2zm23-4c-2.9 0.1-3.3-4.4-0.4-4.8 3.7 0.2 12.7-4.5 14.3 0-0.1 4.8-10.4 3.4-13.9 4.8zm23-3.8c-1.2 0-2.2-0.9-2.4-2.1 0-4.7 10-3.2 13.5-4.6 3.1-0.5 3.8 4.4 0.7 4.8-3.9 0.6-7.9 1.3-11.8 1.9zm23-3.7c-1.2 0-2.3-0.8-2.4-2 0-4.8 10-3.2 13.5-4.5 3.1-0.5 3.8 4.3 0.7 4.8-3.9 0.5-7.9 1.2-11.8 1.7zm23-3.4c-1.2 0-2.2-0.9-2.4-2.1 0.1-4.8 10.1-3.1 13.6-4.4 3.1-0.5 3.8 4.4 0.6 4.8-3.9 0.5-7.9 1.2-11.8 1.7zm23-3.3c-1.2 0-2.2-0.9-2.4-2.1 0.1-4.8 10.1-3 13.6-4.3 3.1-0.5 3.8 4.4 0.7 4.8-4 0.5-7.9 1.1-11.9 1.6zm23.1-3.2c-1.2 0-2.2-0.8-2.4-2.1 0.1-4.7 10.1-2.9 13.6-4.2 3.1-0.4 3.8 4.5 0.7 4.8-4 0.5-7.9 1.1-11.9 1.5zm23.1-2.9c-2.9 0-3.3-4.6-0.3-4.9 3.7 0.4 12.9-3.9 14.3 0.7-0.3 4.8-10.4 2.9-14 4.2zm23.1-2.9c-2.9 0.1-3.2-4.5-0.3-4.8 3.7 0.4 13-3.8 14.3 0.7-0.3 4.8-10.4 2.9-14 4.1zm23.1-2.7c-1.2 0-2.2-0.9-2.4-2.1 0.2-4.8 10.2-2.8 13.7-4 3.1-0.4 3.7 4.5 0.6 4.8-4 0.4-7.9 0.9-11.9 1.3zm23.2-2.6c-3 0.1-3.3-4.5-0.3-4.8 3.7 0.4 13-3.7 14.2 0.9-0.2 4.8-10.4 2.7-13.9 3.9zm23.1-2.5c-3 0.1-3.2-4.5-0.2-4.8 3.7 0.5 12.9-3.6 14.2 1-0.3 4.7-10.4 2.6-14 3.8zm23.2-2.3c-3 0-3.3-4.6-0.3-4.9 3.7 0.5 13-3.5 14.3 1.1-0.4 4.7-10.5 2.6-14 3.8zm23.1-2.3c-3 0.1-3.2-4.6-0.2-4.8 3.7 0.5 13-3.6 14.2 1-0.3 4.8-10.4 2.6-14 3.8zm23.2-2.2c-3 0.1-3.2-4.6-0.2-4.8 3.7 0.5 13-3.5 14.2 1.1-0.4 4.7-10.4 2.5-14 3.7zm23.2-2.1c-3 0-3.3-4.7-0.2-4.9 3.7 0.6 13-3.4 14.2 1.2-0.4 4.8-10.4 2.5-14 3.7zm23.1-2.1c-2.9 0.1-3.2-4.6-0.2-4.8 3.7 0.5 13.1-3.5 14.3 1.2-0.4 4.7-10.5 2.4-14.1 3.6zm23.2-2c-3 0.1-3.2-4.6-0.2-4.8 0 0 8.6-0.8 8.6-0.8 2-0.1 5.3-1 5.6 2 0.2 2.9-3.2 2.7-5.2 2.9-0.3 0-8.5 0.7-8.8 0.7zm23.2-2.2c-1.2 0-2.3-0.9-2.4-2.1 0.2-4.8 10.2-2.8 13.6-4.2 3.1-0.5 3.8 4.4 0.7 4.8-3.9 0.5-7.9 1.1-11.9 1.5zm23-3.3c-2.8 0.1-3.2-4.4-0.4-4.8 3.8 0.2 12.6-4.7 14.2-0.2 0.2 4.8-10.3 3.6-13.8 5zm22.8-4.6c-2.7 0.1-3.3-4.2-0.5-4.7 3.8 0 12.3-5.4 14.2-1 0.6 4.6-10.3 4.3-13.7 5.7zm22.6-5.8c-2.7 0.1-3.4-4-0.7-4.7 3.8-0.2 11.9-6 14.1-1.8 0.9 4.5-10.2 5-13.4 6.5zm22.1-7.1c-2.6 0.1-3.3-3.9-0.8-4.7 3.8-0.4 11.6-6.7 14-2.6 1.1 4.4-10 5.8-13.2 7.3zm21.7-8.4c-8.4-3.8 6.8-7.5 9.6-9.3 2.9-1.3 4.9 3.1 2.1 4.4-3.9 1.6-7.7 3.8-11.7 4.9zm21.2-9.7c-2.5 0.1-3.4-3.5-1.1-4.6 3.8-0.8 10.4-8 13.5-4.2 2.1 3.8-9.6 7.4-12.4 8.8zm20.5-10.9c-2.4 0.1-3.4-3.4-1.2-4.5 3.8-1.1 9.9-8.6 13.3-5.1 2.4 3.5-9.5 8.3-12.1 9.6zm19.8-12.1c-2.3 0-3.3-3.3-1.3-4.5 3.7-1.3 9.4-9.2 13-5.9 2.7 3.2-9.2 9.2-11.7 10.4zm19.1-13.3c-2.2 0-3.3-3.1-1.4-4.4 3.6-1.5 8.9-9.7 12.6-6.6 3 2.8-8.9 10-11.2 11zm18.3-14.4c-2.1 0.1-3.3-2.9-1.5-4.3 3.5-1.7 8.3-10.2 12.2-7.3 3.3 2.3-8.6 10.9-10.7 11.6zm17.5-15.4c-2.1 0.1-3.3-2.8-1.7-4.2 3.5-1.9 7.8-10.6 11.8-8 1 1 1 2.5 0 3.5-3.4 2.7-6.1 7.2-10.1 8.7zm16.6-16.3c-2 0.1-3.2-2.6-1.7-4.1 3.3-2.1 7.1-11.1 11.3-8.6 1 0.9 1.1 2.5 0.2 3.4-3.3 2.9-5.8 7.7-9.8 9.3zm15.8-17.1c-2 0-3.3-2.6-1.9-4.1 3.2-2.2 6.6-11.4 10.9-9.1 1.1 0.9 1.2 2.4 0.4 3.4-3.2 3-5.4 8.2-9.4 9.8zm14.8-18c-1.9 0.1-3.2-2.4-1.9-3.9 3.1-2.4 6.1-11.7 10.5-9.7 1.1 0.9 1.3 2.4 0.5 3.4-3.1 3.2-5 8.6-9.1 10.2zm14-18.6c-1.9 0.1-3.1-2.3-2-3.8 3-2.5 5.5-12 10.1-10.2 1.1 0.8 1.3 2.3 0.6 3.4-3 3.3-4.6 9-8.7 10.6zm13.1-19.2c-6.6-1.8 3.2-10 4.2-13.6 1.6-2.6 5.8-0.1 4.1 2.6-2.8 3.3-4.1 9.4-8.3 11zm12.3-19.8c-6.5-1.7 2.8-10.1 3.7-13.7 1.5-2.8 5.8-0.4 4.2 2.4-2.7 3.4-3.7 9.7-7.9 11.3zm11.4-20.3c-6.3-1.6 2.5-10.2 3.3-13.9 1.3-2.8 5.8-0.6 4.3 2.2-2.6 3.5-3.4 10.1-7.6 11.7zm10.6-20.8c-6.2-1.3 2.1-10.3 2.8-14 1.3-2.8 5.8-0.8 4.4 2.1-2.5 3.6-3 10.3-7.2 11.9zm9.8-21.2c-6.1-1.2 1.8-10.5 2.3-14 1.1-3 5.7-1.1 4.5 1.8-2.4 3.6-2.6 10.6-6.8 12.2zm8.8-21.5c-5.9-1.2 1.6-10.6 1.9-14.2 1-3 5.7-1.3 4.5 1.7-2.1 3.5-2.1 11.1-6.4 12.5zm8-21.9c-5.7-1.1 1.2-10.7 1.4-14.3 0.9-3 5.6-1.5 4.6 1.5-2 3.6-1.7 11.3-6 12.8zm7-22.4c-1.5 0.1-2.7-1.5-2.3-3 2-7.2 3-11.2 3-11.3 0.6-3.1 5.5-2 4.7 1.1 0 0.1-0.9 4.2-3 11.5-0.3 1.1-1.3 1.7-2.4 1.7z"/>
		</g>
		<g id="&lt;Group&gt;">
			<path id="&lt;Path&gt;" class="s10" d="m942.7 1385.1c-3.2 186.5-280.7 186.5-283.9 0 3.2-186.6 280.7-186.5 283.9 0z"/>
			<path id="&lt;Path&gt;" class="s14" d="m795.7 1360.7l-24.3-27.4c-6.1-6.9-16.7-7.6-23.6-1.5l-13.2 11.8c-7 6.1-7.6 16.7-1.5 23.6l58.2 65.7c12.8 13.2 24.9 0.9 34.8-8.4 0 0 14.6-12.9 14.6-12.9l142.3-125.9c6.9-6.2 7.6-16.7 1.5-23.6-9.1-10.5-20.3-27.1-35.4-14.7 0-0.1-129.8 114.8-129.8 114.8-6.9 6.1-17.5 5.4-23.6-1.5z"/>
		</g>
		<g id="&lt;Group&gt;">
			<path id="&lt;Path&gt;" class="s5" d="m1814.5 454.5h-24.6v-46.9c0-6.8 5.5-12.4 12.3-12.4 6.8 0 12.3 5.6 12.3 12.4z"/>
			<g id="&lt;Group&gt;">
				<path id="&lt;Path&gt;" class="s14" d="m1833.3 602.2c-0.7 40.9-61.5 40.9-62.2 0 0.7-40.9 61.5-40.9 62.2 0z"/>
				<g id="&lt;Group&gt;">
					<path id="&lt;Path&gt;" class="s2" d="m1870.9 571.1c0.8-56.4 10-132.7-68.2-136.3-78.2 3.6-69 79.9-68.2 136.3-18.9-0.1-17 17.5-16.7 31h169.8c0.3-13.6 2.2-31.1-16.7-31z"/>
					<path id="&lt;Path&gt;" class="s6" d="m1734.5 571.1h103.9c0 0-85.4-20.8-103.9-68.2z"/>
				</g>
			</g>
			<g id="&lt;Group&gt;">
				<path id="&lt;Path&gt;" class="s14" d="m1932.7 568.9c-0.9 50.7-76.3 50.7-77.2 0 0.9-50.7 76.3-50.7 77.2 0z"/>
				<path id="&lt;Compound Path&gt;" class="s10" d="m1894 586.8c4.9-7.6 16.7 0.6 11.4 7.9-5 7.4-16.8-0.6-11.4-7.9zm-12.5-43.3l18.9-3.4 4.4 38.1-14.2 2.5z"/>
			</g>
		</g>
		<g id="&lt;Group&gt;">
			<path id="&lt;Compound Path&gt;" fill-rule="evenodd" class="s0" d="m2077.7 1413.2l14.5 14.5-28.3 28.3-13.5-13.5c-10.3 7.3-22.3 12.5-34.6 15.1v18.4h-40.1v-18.4c-12.3-2.6-24.3-7.8-34.6-15.1l-13.5 13.5-28.3-28.3 14.5-14.5c-6.1-10.3-10.4-21.8-12.3-33.6h-22.2v-40h24.3c2.8-10.7 7.6-20.9 13.9-29.9l-18.2-18.3 28.3-28.3 19.3 19.3c8.8-5.3 18.7-9.2 28.8-11.4v-27.8h40.1v27.8c10.1 2.2 20 6.1 28.9 11.4l19.2-19.3 28.3 28.3-18.2 18.3c6.3 9 11.1 19.2 13.9 29.9h24.3v40h-22.2c-1.9 11.8-6.1 23.3-12.3 33.6zm-81.9-116.7c-89.7 2.7-89.7 132.9 0 135.6 89.6-2.7 89.6-132.9 0-135.6z"/>
			<path id="&lt;Compound Path&gt;" fill-rule="evenodd" class="s0" d="m1871.5 1315.5l5.1 5.2-10 10-4.8-4.8c-3.7 2.6-7.9 4.4-12.3 5.4v6.5h-14.2v-6.5c-4.4-1-8.6-2.8-12.3-5.4l-4.8 4.8-10-10 5.1-5.2c-2.1-3.6-3.6-7.7-4.3-11.9h-7.9v-14.2h8.6c1-3.8 2.7-7.4 5-10.6l-6.5-6.5 10-10 6.9 6.8c3.1-1.9 6.6-3.3 10.2-4v-9.9h14.2v9.9c3.6 0.7 7.1 2.1 10.3 4l6.8-6.8 10 10-6.4 6.5c2.2 3.2 3.9 6.8 4.9 10.6h8.6v14.2h-7.9c-0.6 4.2-2.1 8.3-4.3 11.9zm-29.1-41.4c-31.6 0.5-31.6 47.6 0 48.1 31.6-0.5 31.6-47.6 0-48.1z"/>
		</g>
		<g id="&lt;Group&gt;">
			<path id="&lt;Path&gt;" class="s10" d="m616 1108.4l-17.6-9.5 85.6-85.6 17.7 9.5z"/>
			<path id="&lt;Compound Path&gt;" fill-rule="evenodd" class="s10" d="m609.7 1050.1c-27.7-15.3-5.7-56.9 22.6-42.5 27.7 15.3 5.7 56.9-22.6 42.5zm17-31.9c-14-7.3-25.2 13.9-11.3 21.3 13.9 7.3 25.2-13.9 11.3-21.3z"/>
			<path id="&lt;Compound Path&gt;" fill-rule="evenodd" class="s10" d="m666.6 1116.7c-27.7-15.3-5.7-57 22.6-42.6 27.7 15.3 5.7 56.9-22.6 42.6zm17-32c-14-7.3-25.2 13.9-11.3 21.3 13.9 7.3 25.2-13.8 11.3-21.3z"/>
		</g>
		<g id="&lt;Group&gt;">
			<path id="&lt;Path&gt;" class="s0" d="m1604.2 1689.6c-349.9-16-281.4 85.8-287.9-250 0-16.1 13-29.2 29.2-29.2 349.9 16 281.3-85.9 287.9 250 0 16.1-13.1 29.2-29.2 29.2z"/>
			<g id="&lt;Group&gt;">
				<path id="&lt;Path&gt;" class="s5" d="m1503.7 1604c-146.8-6.4-135.3 32.5-134.4-89.6 0-10.2 8.2-18.4 18.4-18.4 146.8 6.4 135.3-32.5 134.4 89.6 0 10.1-8.2 18.4-18.4 18.4z"/>
				<path id="&lt;Path&gt;" class="s5" d="m1580.4 1584.9l-48.6-11.2v-48.6l48.6-10.1z"/>
			</g>
		</g>
	</g>
</svg>